:SAMPLES-PER-SECOND 30
:FULLY-SPECIFIED
:DEGREES
479
root  -30.7706 40.1537 -8.11383 -1.44565 -45.4596 1.26654
RightUpLeg  -7.0769 -30.8069 -7.33084
RightLeg  50.096 -5.11534 -6.88652
RightFoot  -4.20397 -0.667611 10.2418
RightToes  0.00048216 0.542163 -0.142577
Spine  16.6919 3.05281 2.23098
Spine1  4.36325 6.91845 -14.0148
HEad  6.13456 57.5423 -16.2444
LeftShoulder1  7.9105 -12.021 -44.3723
LeftArm  -7.89335 25.3342 -21.1465
LeftForeArm  18.5989 -22.9923 -3.98808
LeftHand  -0.25398 0.0180481 5.50724
RightShoulder  4.9253 8.85624 33.9017
RightArm  -0.668187 -16.1897 36.0906
RightForeArm  -0.87293 39.7923 9.38459
RightHand  -1.20327 1.31327 -20.8265
LeftUpLeg  -8.7998 3.73364 -7.58315
LeftLeg  4.43653 38.1901 -6.69563
LeftFoot  -4.28719 -0.812353 13.5361
LeftToes  1.06248e-005 4.65856e-005 -8.18499e-006
480
root  -29.7859 39.9729 -7.7951 -1.36363 -49.6901 1.41936
RightUpLeg  -2.69267 -32.8492 -6.691
RightLeg  48.8425 -2.34662 -3.24311
RightFoot  -4.88682 -0.802071 13.5363
RightToes  0.00048216 0.542163 -0.142577
Spine  14.1721 4.02884 2.5156
Spine1  4.18684 8.0438 -14.6174
HEad  6.90152 58.2743 -14.58
LeftShoulder1  7.83078 -11.7839 -44.6156
LeftArm  -7.64711 27.5512 -21.5489
LeftForeArm  19.6634 -21.1875 -3.81612
LeftHand  -0.25398 0.0180481 5.50724
RightShoulder  4.8711 8.77534 33.7245
RightArm  -1.58906 -13.9656 36.1487
RightForeArm  1.56094 43.2517 10.4373
RightHand  -1.0135 0.437529 -20.1443
LeftUpLeg  -9.48792 2.77752 -8.15805
LeftLeg  2.06245 42.9427 -8.62528
LeftFoot  -4.03229 -0.978996 15.619
LeftToes  1.06248e-005 4.65856e-005 -8.18499e-006
481
root  -28.6939 39.7154 -7.56039 -1.02301 -53.5056 1.19496
RightUpLeg  2.00909 -34.0808 -6.13037
RightLeg  45.5717 1.11805 0.871257
RightFoot  -4.62577 -1.08371 17.7637
RightToes  0.00048216 0.542163 -0.142577
Spine  12.2491 4.90605 3.39104
Spine1  4.12676 9.13062 -15.3294
HEad  7.36358 58.8354 -13.2446
LeftShoulder1  7.70554 -11.5171 -44.6833
LeftArm  -7.95427 29.248 -22.167
LeftForeArm  20.7791 -19.8504 -3.79364
LeftHand  -0.25398 0.0180481 5.50724
RightShoulder  4.87465 8.7794 33.7398
RightArm  -2.81502 -11.899 36.0974
RightForeArm  3.674 46.6265 11.6219
RightHand  -0.911959 -0.0400662 -19.7116
LeftUpLeg  -11.0673 2.66772 -8.57769
LeftLeg  1.15406 46.5949 -9.6075
LeftFoot  -3.98831 -1.16581 18.342
LeftToes  1.06248e-005 4.65856e-005 -8.18499e-006
482
root  -27.4883 39.4534 -7.3879 -0.698349 -56.8197 0.615692
RightUpLeg  6.67229 -33.5649 -5.0419
RightLeg  39.9408 4.0115 3.32111
RightFoot  -4.5957 -1.22045 20.1113
RightToes  0.00048216 0.542163 -0.142577
Spine  11.1596 5.61385 4.90012
Spine1  4.3365 10.122 -16.0104
HEad  7.26031 59.0955 -12.545
LeftShoulder1  7.59009 -11.3084 -44.6303
LeftArm  -8.5267 30.3066 -23.044
LeftForeArm  21.2418 -19.1308 -3.79444
LeftHand  -0.25398 0.0180481 5.50724
RightShoulder  4.90822 8.89097 33.6547
RightArm  -3.95245 -9.96317 35.8852
RightForeArm  5.2304 49.8711 12.9643
RightHand  -0.870726 -0.282209 -19.6882
LeftUpLeg  -12.4967 2.9156 -8.728
LeftLeg  0.0788677 49.3835 -10.8093
LeftFoot  -3.38188 -1.42303 20.5167
LeftToes  1.06248e-005 4.65856e-005 -8.18499e-006
483
root  -26.1754 39.2219 -7.2482 -0.716583 -59.8867 0.324158
RightUpLeg  10.2405 -31.2871 -3.39099
RightLeg  32.9058 4.87779 3.18063
RightFoot  -7.54462 -0.65147 17.1492
RightToes  0.00048216 0.542163 -0.142577
Spine  10.6734 6.16143 6.71963
Spine1  4.59828 10.9868 -16.6514
HEad  6.77504 59.2337 -12.3873
LeftShoulder1  7.51536 -11.1984 -44.5161
LeftArm  -9.38915 31.026 -24.1452
LeftForeArm  21.2805 -19.3636 -3.73836
LeftHand  -0.25398 0.0180481 5.50724
RightShoulder  4.88093 9.01445 33.0488
RightArm  -4.45076 -7.98736 35.7379
RightForeArm  6.27191 52.6133 14.2905
RightHand  -0.910481 -0.189275 -20.2098
LeftUpLeg  -13.5554 3.1243 -8.80311
LeftLeg  -2.43642 51.4671 -13.3689
LeftFoot  -1.90343 -1.79654 21.6308
LeftToes  1.06248e-005 4.65856e-005 -8.18499e-006
484
root  -24.6798 38.9659 -7.13576 -1.11745 -62.8072 0.492584
RightUpLeg  11.9611 -28.3655 -1.78196
RightLeg  26.681 3.23694 1.52567
RightFoot  -14.037 0.128072 10.2076
RightToes  0.00048216 0.542163 -0.142577
Spine  11.0466 6.45305 8.91636
Spine1  4.5291 11.6479 -17.6054
HEad  6.26606 59.4193 -12.6453
LeftShoulder1  7.49446 -11.1551 -44.5235
LeftArm  -10.1707 31.2846 -25.1177
LeftForeArm  21.5716 -20.4401 -3.66685
LeftHand  -0.25398 0.0180481 5.50724
RightShoulder  4.77164 9.0444 32.0838
RightArm  -4.23281 -5.72607 35.5359
RightForeArm  7.1538 54.4874 15.2998
RightHand  -1.02296 0.260513 -20.9359
LeftUpLeg  -15.0348 3.88569 -9.06068
LeftLeg  -4.7026 52.6039 -15.9995
LeftFoot  0.364327 -2.44658 23.4108
LeftToes  1.06248e-005 4.65856e-005 -8.18499e-006
485
root  -22.9615 38.6959 -7.06248 -0.925461 -65.0163 -0.415527
RightUpLeg  11.9205 -26.1294 -0.328208
RightLeg  23.1748 0.0269331 -0.0742673
RightFoot  -20.6288 0.200949 4.00109
RightToes  0.00048216 0.542163 -0.142577
Spine  12.991 6.08607 12.0935
Spine1  3.96875 11.8011 -18.874
HEad  5.49977 59.5312 -13.6433
LeftShoulder1  7.5558 -11.1662 -44.868
LeftArm  -10.5594 30.5738 -25.6354
LeftForeArm  22.5196 -21.7779 -3.65549
LeftHand  -0.25398 0.0180481 5.50724
RightShoulder  4.66454 8.97924 31.4217
RightArm  -3.75002 -3.10342 34.7011
RightForeArm  8.24085 55.4126 15.7817
RightHand  -1.11045 0.6653 -21.2337
LeftUpLeg  -17.4163 8.8833 -10.1178
LeftLeg  -2.55112 48.7253 -14.7982
LeftFoot  3.96349 -3.49817 25.3675
LeftToes  1.06248e-005 4.65856e-005 -8.18499e-006
486
root  -21.1176 38.5179 -7.02974 0.848404 -65.8536 -3.67262
RightUpLeg  10.576 -24.4674 1.53505
RightLeg  22.5808 -3.72392 -1.02532
RightFoot  -24.1663 -0.110515 0.391378
RightToes  0.00048216 0.542163 -0.142577
Spine  16.0926 4.83738 15.9779
Spine1  3.43698 11.2344 -19.5479
HEad  3.83621 59.3446 -15.758
LeftShoulder1  7.70894 -11.2755 -45.462
LeftArm  -10.9817 28.88 -25.9753
LeftForeArm  23.8136 -22.933 -3.70061
LeftHand  -0.25398 0.0180481 5.50724
RightShoulder  4.62866 8.91267 31.3323
RightArm  -3.40808 -0.4362 33.0465
RightForeArm  9.30739 55.2963 15.6114
RightHand  -1.19886 1.14877 -21.2588
LeftUpLeg  -21.8196 23.2191 -14.8643
LeftLeg  4.63762 32.0216 -8.45551
LeftFoot  9.49197 -4.10357 21.9677
LeftToes  1.06248e-005 4.65856e-005 -8.18499e-006
487
root  -19.3372 38.455 -7.01198 3.45534 -65.5805 -7.91473
RightUpLeg  8.64946 -24.7709 3.18539
RightLeg  23.5287 -5.33436 -1.66217
RightFoot  -24.9637 -0.362414 -1.63804
RightToes  0.00048216 0.542163 -0.142577
Spine  18.6755 3.36014 19.0938
Spine1  3.51884 10.2145 -18.723
HEad  1.72181 58.8657 -18.2246
LeftShoulder1  7.88618 -11.4736 -45.9093
LeftArm  -11.9435 26.9443 -26.5963
LeftForeArm  24.7405 -23.8609 -3.80431
LeftHand  -0.25398 0.0180481 5.50724
RightShoulder  4.64843 8.91352 31.4901
RightArm  -3.14282 1.69733 31.2639
RightForeArm  9.60076 53.5863 14.5648
RightHand  -1.43424 2.27836 -21.7186
LeftUpLeg  -29.8067 40.4538 -23.6568
LeftLeg  11.1733 6.96627 -2.61357
LeftFoot  14.9382 -2.41959 9.98854
LeftToes  1.06248e-005 4.65856e-005 -8.18499e-006
488
root  -17.7669 38.5362 -6.98154 5.25638 -65.1598 -10.5319
RightUpLeg  6.22708 -26.0748 3.96356
RightLeg  24.5413 -4.85673 -1.88575
RightFoot  -24.2214 -0.482829 -2.8282
RightToes  0.00048216 0.542163 -0.142577
Spine  19.6936 2.56123 20.1942
Spine1  3.98781 9.19737 -16.5732
HEad  0.845824 58.3677 -19.2192
LeftShoulder1  7.9802 -11.6521 -45.9108
LeftArm  -13.0034 25.5273 -27.2539
LeftForeArm  24.9042 -24.6477 -3.9616
LeftHand  -0.25398 0.0180481 5.50724
RightShoulder  4.69792 8.95498 31.7643
RightArm  -2.64937 2.83776 30.2391
RightForeArm  8.69752 49.4796 12.5327
RightHand  -1.74724 3.65566 -22.4792
LeftUpLeg  -34.6312 44.2023 -26.4182
LeftLeg  14.5269 -6.50799 -1.42403
LeftFoot  16.8451 0.716595 -3.45044
LeftToes  1.06248e-005 4.65856e-005 -8.18499e-006
489
root  -16.417 38.819 -6.9437 5.05875 -65.077 -10.1115
RightUpLeg  3.61723 -26.4021 3.67035
RightLeg  24.6401 -4.42448 -1.68162
RightFoot  -22.2704 -0.473098 -3.3657
RightToes  0.00048216 0.542163 -0.142577
Spine  19.751 2.4395 19.1151
Spine1  4.19917 8.36743 -14.1683
HEad  1.91248 58.1204 -17.9076
LeftShoulder1  7.94379 -11.7198 -45.4837
LeftArm  -13.3818 24.7874 -27.2024
LeftForeArm  24.6669 -25.2961 -4.11212
LeftHand  -0.25398 0.0180481 5.50724
RightShoulder  4.79149 8.98625 32.4212
RightArm  -1.85757 2.80549 30.3261
RightForeArm  6.86805 42.7102 9.90834
RightHand  -1.84281 4.15997 -22.4676
LeftUpLeg  -32.3395 37.6118 -20.4255
LeftLeg  16.7338 -7.55173 -2.19972
LeftFoot  14.034 1.98233 -9.10784
LeftToes  1.06248e-005 4.65856e-005 -8.18499e-006
490
root  -15.2041 39.2682 -6.88617 2.95395 -65.2003 -7.40149
RightUpLeg  1.70771 -24.7192 2.42862
RightLeg  23.3081 -5.72974 -1.15319
RightFoot  -19.2925 -0.370756 -3.45005
RightToes  0.00048216 0.542163 -0.142577
Spine  19.8522 2.45097 16.913
Spine1  3.82659 7.66044 -12.5062
HEad  3.4239 58.224 -15.6169
LeftShoulder1  7.81345 -11.689 -44.802
LeftArm  -13.1459 24.3958 -26.2142
LeftForeArm  24.6976 -25.7778 -4.21388
LeftHand  -0.25398 0.0180481 5.50724
RightShoulder  4.91982 9.00789 33.3787
RightArm  -0.802577 1.55518 31.4366
RightForeArm  3.89712 34.0494 7.34245
RightHand  -1.62528 3.56064 -21.1515
LeftUpLeg  -29.5225 29.6751 -14.8401
LeftLeg  18.7124 -4.17842 -1.24212
LeftFoot  9.23978 1.15255 -6.57813
LeftToes  1.06248e-005 4.65856e-005 -8.18499e-006
